<svg width="17" height="16" viewBox="0 0 17 16" fill="none" xmlns="http://www.w3.org/2000/svg">
<path d="M11.9073 0.4375C10.4936 0.4375 9.13668 1.09563 8.25104 2.13564C7.36541 1.09563 6.00852 0.4375 4.59476 0.4375C2.09224 0.4375 0.125977 2.40377 0.125977 4.90629C0.125977 7.97756 2.8885 10.4801 7.07291 14.2826L8.25104 15.347L9.42918 14.2745C13.6136 10.4801 16.3761 7.97756 16.3761 4.90629C16.3761 2.40377 14.4098 0.4375 11.9073 0.4375ZM8.33229 13.072L8.25104 13.1532L8.16979 13.072C4.30226 9.57008 1.75099 7.25443 1.75099 4.90629C1.75099 3.28127 2.96975 2.06251 4.59476 2.06251C5.84602 2.06251 7.06478 2.8669 7.49541 3.98003H9.0148C9.4373 2.8669 10.6561 2.06251 11.9073 2.06251C13.5323 2.06251 14.7511 3.28127 14.7511 4.90629C14.7511 7.25443 12.1998 9.57008 8.33229 13.072Z" fill="#1C4980"/>
</svg>
