<svg width="16" height="17" viewBox="0 0 16 17" fill="none" xmlns="http://www.w3.org/2000/svg">
<g id="fluent:chat-12-regular">
<path id="Vector" d="M4.53363 7.15941C4.53363 6.9826 4.60386 6.81303 4.72889 6.68801C4.85391 6.56299 5.02348 6.49275 5.20029 6.49275H10.8003C10.9771 6.49275 11.1467 6.56299 11.2717 6.68801C11.3967 6.81303 11.467 6.9826 11.467 7.15941C11.467 7.33623 11.3967 7.50579 11.2717 7.63082C11.1467 7.75584 10.9771 7.82608 10.8003 7.82608H5.20029C5.02348 7.82608 4.85391 7.75584 4.72889 7.63082C4.60386 7.50579 4.53363 7.33623 4.53363 7.15941ZM5.20029 9.15941C5.02348 9.15941 4.85391 9.22965 4.72889 9.35468C4.60386 9.4797 4.53363 9.64927 4.53363 9.82608C4.53363 10.0029 4.60386 10.1725 4.72889 10.2975C4.85391 10.4225 5.02348 10.4927 5.20029 10.4927H9.46696C9.64377 10.4927 9.81334 10.4225 9.93836 10.2975C10.0634 10.1725 10.1336 10.0029 10.1336 9.82608C10.1336 9.64927 10.0634 9.4797 9.93836 9.35468C9.81334 9.22965 9.64377 9.15941 9.46696 9.15941H5.20029ZM1.33363 8.62608C1.33396 7.16448 1.81461 5.74349 2.70161 4.58181C3.58861 3.42013 4.8328 2.58213 6.24269 2.1968C7.65258 1.81146 9.15004 1.90014 10.5046 2.44918C11.8592 2.99823 12.9957 3.97721 13.7394 5.23546C14.4831 6.49371 14.7927 7.96149 14.6205 9.41292C14.4484 10.8643 13.804 12.219 12.7866 13.2683C11.7691 14.3176 10.435 15.0036 8.98963 15.2205C7.54421 15.4374 6.06757 15.1732 4.78696 14.4687L2.19496 15.2581C2.07935 15.2933 1.95634 15.2964 1.83908 15.2671C1.72183 15.2378 1.61475 15.1772 1.52929 15.0918C1.44383 15.0063 1.38321 14.8992 1.35391 14.782C1.32461 14.6647 1.32774 14.5417 1.36296 14.4261L2.15229 11.8301C1.61356 10.8482 1.33194 9.74603 1.33363 8.62608ZM8.00029 3.29275C7.05354 3.29267 6.12384 3.54461 5.30666 4.02269C4.48949 4.50077 3.81431 5.18776 3.35046 6.0131C2.88662 6.83843 2.65083 7.77237 2.66732 8.71897C2.68381 9.66558 2.95198 10.5907 3.44429 11.3994C3.49316 11.4797 3.52448 11.5695 3.5362 11.6628C3.54792 11.7561 3.53977 11.8508 3.51229 11.9407L3.00163 13.6194L4.67762 13.1087C4.76784 13.0813 4.86285 13.0732 4.9564 13.0852C5.04994 13.0971 5.13989 13.1288 5.22029 13.1781C5.9232 13.6072 6.71594 13.8678 7.53638 13.9393C8.35683 14.0108 9.18269 13.8913 9.94924 13.5902C10.7158 13.2892 11.4022 12.8146 11.9547 12.2039C12.5071 11.5931 12.9107 10.8627 13.1336 10.0699C13.3566 9.27713 13.3929 8.44347 13.2398 7.63428C13.0866 6.82509 12.7481 6.06236 12.2509 5.40587C11.7536 4.74937 11.1111 4.21696 10.3736 3.85034C9.63618 3.48373 8.82385 3.29288 8.00029 3.29275Z" fill="#0073E6"/>
</g>
</svg>
