<svg width="15" height="16" viewBox="0 0 15 16" fill="none" xmlns="http://www.w3.org/2000/svg">
<path d="M12.25 2.04668C10.9902 0.786899 9.28158 0.0791626 7.49998 0.0791626C5.71839 0.0791626 4.00976 0.786899 2.74998 2.04668C1.49021 3.30646 0.782471 5.01508 0.782471 6.79668C0.782471 8.57827 1.49021 10.2869 2.74998 11.5467L6.92207 15.7267C6.99566 15.8009 7.08322 15.8598 7.1797 15.9C7.27617 15.9402 7.37964 15.9608 7.48415 15.9608C7.58866 15.9608 7.69214 15.9402 7.78861 15.9C7.88508 15.8598 7.97264 15.8009 8.04623 15.7267L12.25 11.5071C13.5045 10.2526 14.2093 8.55105 14.2093 6.77689C14.2093 5.00272 13.5045 3.30121 12.25 2.04668ZM11.1179 10.375L7.49998 14.0088L3.88207 10.375C3.16731 9.65959 2.6807 8.74833 2.48374 7.75641C2.28679 6.76448 2.38834 5.73643 2.77556 4.80222C3.16278 3.868 3.81827 3.06955 4.65919 2.5078C5.50011 1.94606 6.4887 1.64624 7.49998 1.64624C8.51127 1.64624 9.49986 1.94606 10.3408 2.5078C11.1817 3.06955 11.8372 3.868 12.2244 4.80222C12.6116 5.73643 12.7132 6.76448 12.5162 7.75641C12.3193 8.74833 11.8327 9.65959 11.1179 10.375ZM5.12498 4.36626C4.48588 5.00733 4.12701 5.87563 4.12701 6.78084C4.12701 7.68606 4.48588 8.55436 5.12498 9.19543C5.5998 9.67105 6.20449 9.99586 6.86321 10.1291C7.52192 10.2624 8.20532 10.1981 8.82767 9.94446C9.45001 9.69079 9.98359 9.25898 10.3614 8.70321C10.7393 8.14743 10.9446 7.49245 10.9517 6.82043C10.9552 6.37171 10.8688 5.92684 10.6974 5.51211C10.5261 5.09738 10.2734 4.72121 9.95415 4.40584C9.64039 4.08489 9.26626 3.82914 8.85328 3.65334C8.4403 3.47753 7.99663 3.38513 7.5478 3.38145C7.09897 3.37777 6.65385 3.46289 6.23805 3.6319C5.82224 3.80091 5.44396 4.05049 5.12498 4.36626ZM8.8379 8.07126C8.53789 8.37585 8.1414 8.56677 7.71621 8.61138C7.29102 8.65599 6.86354 8.55152 6.50684 8.31583C6.15015 8.08014 5.88641 7.72787 5.7607 7.31924C5.63499 6.91062 5.65512 6.47101 5.81766 6.07559C5.9802 5.68017 6.27504 5.35348 6.65178 5.15138C7.02852 4.94929 7.46377 4.88433 7.8831 4.96762C8.30243 5.05091 8.67981 5.27728 8.95072 5.60801C9.22163 5.93875 9.36924 6.35332 9.36832 6.78084C9.3568 7.26952 9.15179 7.73364 8.79832 8.07126H8.8379Z" fill="#1C4980"/>
</svg>
