<svg width="22" height="16" viewBox="0 0 22 16" fill="none" xmlns="http://www.w3.org/2000/svg">
<path d="M11.265 3.99272H3.29539C2.94108 3.99272 2.65405 4.28008 2.65405 4.63406V13.6398H1.65861C1.45561 13.6398 1.2927 13.7186 1.18228 13.8445C1.07442 13.9675 1.02389 14.127 1.02389 14.2813C1.02389 14.4355 1.07442 14.595 1.18228 14.718C1.2927 14.844 1.45561 14.9227 1.65861 14.9227H1.6951H1.73159H1.76808H1.80457H1.84106H1.87755H1.91404H1.95053H1.98702H2.02351H2.05999H2.09648H2.13297H2.16946H2.20595H2.24244H2.27893H2.31542H2.35191H2.3884H2.42489H2.46138H2.49787H2.53435H2.57084H2.60733H2.64382H2.68031H2.7168H2.75329H2.78978H2.82627H2.86276H2.89925H2.93574H2.97223H3.00872H3.0452H3.08169H3.11818H3.15467H3.19116H3.22765H3.26414H3.30063H3.33712H3.37361H3.4101H3.44659H3.48308H3.51957H3.55606H3.59255H3.62903H3.66552H3.70201H3.7385H3.77499H3.81148H3.84797H3.88446H3.92095H3.95744H3.99393H4.03042H4.06691H4.1034H4.13989H4.17638H4.21287H4.24935H4.28584H4.32233H4.35882H4.39531H4.4318H4.46829H4.50478H4.54127H4.57776H4.61425H4.65074H4.68723H4.72372H4.76021H4.7967H4.83319H4.86968H4.90617H4.94266H4.97915H5.01563H5.05212H5.08861H5.1251H5.16159H5.19808H5.23457H5.27106H5.30755H5.34404H5.38053H5.41702H5.45351H5.49H5.52649H5.56298H5.59947H5.63596H5.67245H5.70894H5.74543H5.78192H5.81841H5.8549H5.89138H5.92787H5.96436H6.00085H6.03734H6.07383H6.11032H6.14681H6.1833H6.21979H6.25628H6.29277H6.32926H6.36575H6.40224H6.43873H6.47522H6.51171H6.5482H6.58469H6.62118H6.65767H6.69416H6.73065H6.76714H6.80363H6.84012H6.87661H6.9131H6.94958H6.98607H7.02256H7.05905H7.09554H7.13203H7.16852H7.20501H7.2415H7.27799H7.31448H7.35097H7.38746H7.42395H7.46044H7.49693H7.53342H7.56991H7.6064H7.64289H7.67938H7.71587H7.75236H7.78885H7.82534H7.86183H7.89832H7.93481H7.9713H8.00779H8.04428H8.08077H8.11726H8.15375H8.19024H8.22673H8.26322H8.29971H8.3362H8.37269H8.40917H8.44566H8.48215H8.51864H8.55513H8.59162H8.62811H8.6646H8.70109H8.73758H8.77407H8.81056H8.84705H8.88354H8.92003H8.95652H8.99301H9.0295H9.06599H9.10248H9.13897H9.17546H9.21195H9.24844H9.28493H9.32142H9.35791H9.3944H9.43089H9.46738H9.50387H9.54036H9.57685H9.61334H9.64983H9.68632H9.72281H9.7593H9.79579H9.83228H9.86877H9.90526H9.94175H9.97824H10.0147H10.0512H10.0877H10.1242H10.1607H10.1972H10.2337H10.2702H10.3066H10.3431H10.3796H10.4161H10.4526H10.4891H10.5256H10.5621H10.5986H10.6351H10.6715H10.708H10.7445H10.781H10.8175H10.854H10.8905H10.927H10.9635H11H11.0364H11.0729H11.1094H11.1459H11.1824H11.2189H11.2554H11.2919H11.3284H11.3649H11.4013H11.4378H11.4743H11.5108H11.5473H11.5838H11.6203H11.6568H11.6933H11.7297H11.7662H11.8027H11.8392H11.8757H11.9122H11.9487H11.9852H12.0217H12.0582H12.0946H12.1311H12.1676H12.2041H12.2406H12.2771H12.3136H12.3501H12.3866H12.4231H12.4595H12.496H12.5325H12.569H12.6055H12.642H12.6785H12.715H12.7515H12.788H12.8244H12.8609H12.8974H12.9339H12.9704H13.0069H13.0434H13.0799H13.1164H13.1529H13.1893H13.2258H13.2623H13.2988H13.3353H13.3718H13.4083H13.4448H13.4813H13.5177H13.5542H13.5907H13.6272H13.6637H13.7002H13.7367H13.7732H13.8097H13.8462H13.8826H13.9191H13.9556H13.9921H14.0286H14.0651H14.1016H14.1381H14.1746H14.2111H14.2475H14.284H14.3205H14.357H14.3935H14.43H14.4665H14.503H14.5395H14.576H14.6124H14.6489H14.6854H14.7219H14.7584H14.7949H14.8314H14.8679H14.9044H14.9409H14.9773H15.0138H15.0503H15.0868H15.1233H15.1598H15.1963H15.2328H15.2693H15.3057H15.3422H15.3787H15.4152H15.4517H15.4882H15.5247H15.5612H15.5977H15.6342H15.6706H15.7071H15.7436H15.7801H15.8166H15.8531H15.8896H15.9261H15.9626H15.9991H16.0355H16.072H16.1085H16.145H16.1815H16.218H16.2545H16.291H16.3275H16.3639H16.4004H16.4369H16.4734H16.5099H16.5464H16.5829H16.6194H16.6559H16.6924H16.7288H16.7653H16.8018H16.8383H16.8748H16.9113H16.9478H16.9843H17.0208H17.0572H17.0937H17.1302H17.1667H17.2032H17.2397H17.2762H17.3127H17.3492H17.3857H17.4221H17.4586H17.4951H17.5316H17.5681H17.6046H17.6411H17.6776H17.7141H17.7505H17.787H17.8235H17.86H17.8965H17.933H17.9695H18.006H18.0425H18.079H18.1154H18.1519H18.1884H18.2249H18.2614H18.2979H18.3344H18.3709H18.4074H18.4438H18.4803H18.5168H18.5533H18.5898H18.6263H18.6628H18.6993H18.7358H18.7723H18.8087H18.8452H18.8817H18.9182H18.9547H18.9912H19.0277H19.0642H19.1007H19.1371H19.1736H19.2101H19.2466H19.2831H19.3196H19.3561H19.3926H19.4291H19.4656H19.502H19.5385H19.575H19.6115H19.648H19.6845H19.721H19.7575H19.794H19.8304H19.8669H19.9034H19.9399H19.9764H20.0129H20.0494H20.0859H20.1224H20.1588H20.1953H20.2318H20.2683H20.3048H20.3413C20.5443 14.9227 20.7072 14.844 20.8176 14.718C20.9255 14.595 20.976 14.4355 20.976 14.2813C20.976 14.127 20.9255 13.9675 20.8176 13.8445C20.7072 13.7186 20.5443 13.6398 20.3413 13.6398H19.3461V1.71863C19.3461 1.36437 19.0588 1.07705 18.7045 1.07705H11.9063C11.552 1.07705 11.265 1.36446 11.265 1.71863V3.99272ZM7.0383 10.0068H8.16342V13.6398H7.0383V10.0068ZM5.75538 9.36524V13.6398H3.93696V5.27563H11.265V13.6398H9.44633V9.36524C9.44633 9.01126 9.1593 8.7239 8.80499 8.7239H6.39672C6.04242 8.7239 5.75538 9.01126 5.75538 9.36524ZM13.9517 11.3319V13.6398H12.5479V2.35996H18.0632V13.6398H16.6591L16.6523 10.0716C16.6509 9.32688 16.0467 8.7239 15.302 8.7239C14.5563 8.7239 13.9517 9.32844 13.9517 10.0742V11.3319Z" fill="#1C4980" stroke="#1C4980" stroke-width="0.3"/>
</svg>
