<svg width="46" height="46" viewBox="0 0 46 46" fill="none" xmlns="http://www.w3.org/2000/svg">
<mask id="mask0_10603_30589" style="mask-type:alpha" maskUnits="userSpaceOnUse" x="0" y="0" width="18" height="18">
<rect width="18" height="18" fill="#D9D9D9"/>
</mask>
<g mask="url(#mask0_10603_30589)">
<path d="M10.5 11.25C10.7125 11.25 10.8969 11.1719 11.0531 11.0156C11.2094 10.8594 11.2875 10.675 11.2875 10.4625C11.2875 10.25 11.2094 10.0656 11.0531 9.90938C10.8969 9.75313 10.7125 9.675 10.5 9.675C10.2875 9.675 10.1031 9.75313 9.94687 9.90938C9.79062 10.0656 9.7125 10.25 9.7125 10.4625C9.7125 10.675 9.79062 10.8594 9.94687 11.0156C10.1031 11.1719 10.2875 11.25 10.5 11.25ZM9.9375 8.85H11.0625C11.0625 8.4875 11.1 8.22188 11.175 8.05313C11.25 7.88438 11.425 7.6625 11.7 7.3875C12.075 7.0125 12.325 6.70938 12.45 6.47813C12.575 6.24688 12.6375 5.975 12.6375 5.6625C12.6375 5.1 12.4406 4.64063 12.0469 4.28438C11.6531 3.92813 11.1375 3.75 10.5 3.75C9.9875 3.75 9.54063 3.89375 9.15938 4.18125C8.77813 4.46875 8.5125 4.85 8.3625 5.325L9.375 5.7375C9.4875 5.425 9.64063 5.19063 9.83438 5.03438C10.0281 4.87813 10.25 4.8 10.5 4.8C10.8 4.8 11.0438 4.88438 11.2313 5.05313C11.4188 5.22188 11.5125 5.45 11.5125 5.7375C11.5125 5.9125 11.4625 6.07813 11.3625 6.23438C11.2625 6.39062 11.0875 6.5875 10.8375 6.825C10.425 7.1875 10.1719 7.47188 10.0781 7.67813C9.98438 7.88438 9.9375 8.275 9.9375 8.85ZM6 13.5C5.5875 13.5 5.23438 13.3531 4.94063 13.0594C4.64688 12.7656 4.5 12.4125 4.5 12V3C4.5 2.5875 4.64688 2.23438 4.94063 1.94063C5.23438 1.64688 5.5875 1.5 6 1.5H15C15.4125 1.5 15.7656 1.64688 16.0594 1.94063C16.3531 2.23438 16.5 2.5875 16.5 3V12C16.5 12.4125 16.3531 12.7656 16.0594 13.0594C15.7656 13.3531 15.4125 13.5 15 13.5H6ZM6 12H15V3H6V12ZM3 16.5C2.5875 16.5 2.23438 16.3531 1.94063 16.0594C1.64688 15.7656 1.5 15.4125 1.5 15V4.5H3V15H13.5V16.5H3Z" fill="#1C4980"/>
</g>
<path d="M5.10001 35.3493C5.10001 35.1504 5.17903 34.9596 5.31968 34.8189C5.46033 34.6783 5.6511 34.5993 5.85001 34.5993H12.15C12.3489 34.5993 12.5397 34.6783 12.6803 34.8189C12.821 34.9596 12.9 35.1504 12.9 35.3493C12.9 35.5482 12.821 35.7389 12.6803 35.8796C12.5397 36.0202 12.3489 36.0993 12.15 36.0993H5.85001C5.6511 36.0993 5.46033 36.0202 5.31968 35.8796C5.17903 35.7389 5.10001 35.5482 5.10001 35.3493ZM5.85001 37.5993C5.6511 37.5993 5.46033 37.6783 5.31968 37.8189C5.17903 37.9596 5.10001 38.1503 5.10001 38.3493C5.10001 38.5482 5.17903 38.7389 5.31968 38.8796C5.46033 39.0202 5.6511 39.0993 5.85001 39.0993H10.65C10.8489 39.0993 11.0397 39.0202 11.1803 38.8796C11.321 38.7389 11.4 38.5482 11.4 38.3493C11.4 38.1503 11.321 37.9596 11.1803 37.8189C11.0397 37.6783 10.8489 37.5993 10.65 37.5993H5.85001ZM1.50001 36.9993C1.50038 35.355 2.04112 33.7564 3.039 32.4495C4.03687 31.1426 5.43658 30.1998 7.02271 29.7663C8.60884 29.3328 10.2935 29.4326 11.8174 30.0503C13.3412 30.6679 14.6199 31.7693 15.4565 33.1848C16.2932 34.6003 16.6415 36.2516 16.4478 37.8845C16.2541 39.5173 15.5292 41.0413 14.3846 42.2218C13.2399 43.4023 11.7391 44.1739 10.113 44.4179C8.48692 44.6619 6.8257 44.3648 5.38501 43.5723L2.46901 44.4603C2.33894 44.4999 2.20056 44.5034 2.06865 44.4704C1.93674 44.4375 1.81627 44.3693 1.72013 44.2731C1.62399 44.177 1.55579 44.0565 1.52283 43.9246C1.48987 43.7927 1.49339 43.6543 1.53301 43.5243L2.42101 40.6038C1.81494 39.4992 1.49811 38.2592 1.50001 36.9993ZM9.00001 30.9993C7.93492 30.9992 6.889 31.2826 5.96968 31.8204C5.05036 32.3583 4.29078 33.1312 3.76895 34.0597C3.24712 34.9882 2.98186 36.0388 3.00042 37.1038C3.01897 38.1687 3.32066 39.2095 3.87451 40.1193C3.92949 40.2096 3.96472 40.3106 3.97791 40.4156C3.99109 40.5205 3.98193 40.6271 3.95101 40.7283L3.37651 42.6168L5.26201 42.0423C5.3635 42.0113 5.47039 42.0023 5.57563 42.0158C5.68087 42.0292 5.78205 42.0648 5.87251 42.1203C6.66328 42.6031 7.55511 42.8962 8.47811 42.9766C9.40111 43.057 10.3302 42.9226 11.1926 42.5839C12.0549 42.2452 12.8271 41.7114 13.4487 41.0243C14.0702 40.3372 14.5242 39.5155 14.775 38.6236C15.0258 37.7317 15.0667 36.7938 14.8944 35.8835C14.7221 34.9731 14.3413 34.1151 13.7819 33.3765C13.2225 32.638 12.4997 32.039 11.67 31.6266C10.8404 31.2141 9.92651 30.9994 9.00001 30.9993Z" fill="#1C4980"/>
<mask id="mask1_10603_30589" style="mask-type:alpha" maskUnits="userSpaceOnUse" x="28" y="0" width="18" height="18">
<rect x="28" width="18" height="18" fill="#D9D9D9"/>
</mask>
<g mask="url(#mask1_10603_30589)">
<path d="M38.5 11.25C38.7125 11.25 38.8969 11.1719 39.0531 11.0156C39.2094 10.8594 39.2875 10.675 39.2875 10.4625C39.2875 10.25 39.2094 10.0656 39.0531 9.90938C38.8969 9.75313 38.7125 9.675 38.5 9.675C38.2875 9.675 38.1031 9.75313 37.9469 9.90938C37.7906 10.0656 37.7125 10.25 37.7125 10.4625C37.7125 10.675 37.7906 10.8594 37.9469 11.0156C38.1031 11.1719 38.2875 11.25 38.5 11.25ZM37.9375 8.85H39.0625C39.0625 8.4875 39.1 8.22188 39.175 8.05313C39.25 7.88438 39.425 7.6625 39.7 7.3875C40.075 7.0125 40.325 6.70938 40.45 6.47813C40.575 6.24688 40.6375 5.975 40.6375 5.6625C40.6375 5.1 40.4406 4.64062 40.0469 4.28438C39.6531 3.92813 39.1375 3.75 38.5 3.75C37.9875 3.75 37.5406 3.89375 37.1594 4.18125C36.7781 4.46875 36.5125 4.85 36.3625 5.325L37.375 5.7375C37.4875 5.425 37.6406 5.19062 37.8344 5.03438C38.0281 4.87813 38.25 4.8 38.5 4.8C38.8 4.8 39.0438 4.88438 39.2313 5.05313C39.4188 5.22188 39.5125 5.45 39.5125 5.7375C39.5125 5.9125 39.4625 6.07812 39.3625 6.23438C39.2625 6.39062 39.0875 6.5875 38.8375 6.825C38.425 7.1875 38.1719 7.47188 38.0781 7.67813C37.9844 7.88438 37.9375 8.275 37.9375 8.85ZM34 13.5C33.5875 13.5 33.2344 13.3531 32.9406 13.0594C32.6469 12.7656 32.5 12.4125 32.5 12V3C32.5 2.5875 32.6469 2.23438 32.9406 1.94063C33.2344 1.64688 33.5875 1.5 34 1.5H43C43.4125 1.5 43.7656 1.64688 44.0594 1.94063C44.3531 2.23438 44.5 2.5875 44.5 3V12C44.5 12.4125 44.3531 12.7656 44.0594 13.0594C43.7656 13.3531 43.4125 13.5 43 13.5H34ZM34 12H43V3H34V12ZM31 16.5C30.5875 16.5 30.2344 16.3531 29.9406 16.0594C29.6469 15.7656 29.5 15.4125 29.5 15V4.5H31V15H41.5V16.5H31Z" fill="#0073E6"/>
</g>
<path d="M33.1 35.3493C33.1 35.1504 33.179 34.9596 33.3197 34.8189C33.4603 34.6783 33.6511 34.5993 33.85 34.5993H40.15C40.3489 34.5993 40.5397 34.6783 40.6803 34.8189C40.821 34.9596 40.9 35.1504 40.9 35.3493C40.9 35.5482 40.821 35.7389 40.6803 35.8796C40.5397 36.0202 40.3489 36.0993 40.15 36.0993H33.85C33.6511 36.0993 33.4603 36.0202 33.3197 35.8796C33.179 35.7389 33.1 35.5482 33.1 35.3493ZM33.85 37.5993C33.6511 37.5993 33.4603 37.6783 33.3197 37.8189C33.179 37.9596 33.1 38.1503 33.1 38.3493C33.1 38.5482 33.179 38.7389 33.3197 38.8796C33.4603 39.0202 33.6511 39.0993 33.85 39.0993H38.65C38.8489 39.0993 39.0397 39.0202 39.1803 38.8796C39.321 38.7389 39.4 38.5482 39.4 38.3493C39.4 38.1503 39.321 37.9596 39.1803 37.8189C39.0397 37.6783 38.8489 37.5993 38.65 37.5993H33.85ZM29.5 36.9993C29.5004 35.355 30.0411 33.7564 31.039 32.4495C32.0369 31.1426 33.4366 30.1998 35.0227 29.7663C36.6088 29.3328 38.2935 29.4326 39.8174 30.0503C41.3412 30.6679 42.6199 31.7693 43.4565 33.1848C44.2932 34.6003 44.6415 36.2516 44.4478 37.8845C44.2541 39.5173 43.5292 41.0413 42.3846 42.2218C41.2399 43.4023 39.7391 44.1739 38.113 44.4179C36.4869 44.6619 34.8257 44.3648 33.385 43.5723L30.469 44.4603C30.3389 44.4999 30.2006 44.5034 30.0686 44.4704C29.9367 44.4375 29.8163 44.3693 29.7201 44.2731C29.624 44.177 29.5558 44.0565 29.5228 43.9246C29.4899 43.7927 29.4934 43.6543 29.533 43.5243L30.421 40.6038C29.8149 39.4992 29.4981 38.2592 29.5 36.9993ZM37 30.9993C35.9349 30.9992 34.889 31.2826 33.9697 31.8204C33.0504 32.3583 32.2908 33.1312 31.7689 34.0597C31.2471 34.9882 30.9819 36.0388 31.0004 37.1038C31.019 38.1687 31.3207 39.2095 31.8745 40.1193C31.9295 40.2096 31.9647 40.3106 31.9779 40.4156C31.9911 40.5205 31.9819 40.6271 31.951 40.7283L31.3765 42.6168L33.262 42.0423C33.3635 42.0113 33.4704 42.0023 33.5756 42.0158C33.6809 42.0292 33.7821 42.0648 33.8725 42.1203C34.6633 42.6031 35.5551 42.8962 36.4781 42.9766C37.4011 43.057 38.3302 42.9226 39.1926 42.5839C40.0549 42.2452 40.8271 41.7114 41.4487 41.0243C42.0702 40.3372 42.5242 39.5155 42.775 38.6236C43.0258 37.7317 43.0667 36.7938 42.8944 35.8835C42.7221 34.9731 42.3413 34.1151 41.7819 33.3765C41.2225 32.638 40.4997 32.039 39.67 31.6266C38.8404 31.2141 37.9265 30.9994 37 30.9993Z" fill="#0073E6"/>
</svg>
