<svg width="15" height="16" viewBox="0 0 15 16" fill="none" xmlns="http://www.w3.org/2000/svg">
<path d="M6.87806 3.61696V13.1846C6.87785 13.4815 6.77287 13.7687 6.58163 13.9958C6.39039 14.2228 6.12516 14.3751 5.83265 14.4258C5.54015 14.4765 5.23914 14.4223 4.98267 14.2728C4.72619 14.1233 4.5307 13.8881 4.43063 13.6086L2.89285 9.2037M2.89285 9.2037C2.28491 8.94522 1.78494 8.48535 1.47756 7.90061C1.17018 7.31587 1.07426 6.64289 1.20603 5.99555C1.33781 5.34822 1.68919 4.76629 2.2007 4.34825C2.71221 3.93021 3.35245 3.70173 4.01306 3.70148H5.32523C8.26185 3.70148 10.7866 2.81763 11.8918 1.55273V11.5802C10.7866 10.3153 8.26257 9.43147 5.32523 9.43147H4.01306C3.62817 9.43203 3.24714 9.35409 2.89285 9.2037ZM11.8918 8.71522C12.4617 8.71522 13.0082 8.48884 13.4112 8.08587C13.8142 7.6829 14.0405 7.13636 14.0405 6.56647C14.0405 5.99659 13.8142 5.45005 13.4112 5.04708C13.0082 4.64411 12.4617 4.41773 11.8918 4.41773" stroke="#1C4980" stroke-width="1.2" stroke-linecap="round" stroke-linejoin="round"/>
</svg>
